<svg width="20" height="20" viewBox="0 0 20 20" fill="none" xmlns="http://www.w3.org/2000/svg">
<path d="M9.99998 5.83335V10L11.6666 11.6667M10.8475 17.4525C9.27904 17.6308 7.69433 17.3096 6.31905 16.5348C4.94376 15.7599 3.84802 14.5709 3.18786 13.1371C2.5277 11.7032 2.33679 10.0976 2.64231 8.5489C2.94783 7.00021 3.73421 5.5874 4.88945 4.51167C6.0447 3.43594 7.50991 2.75213 9.07642 2.55764C10.6429 2.36315 12.2309 2.66788 13.6141 3.42845C14.9973 4.18901 16.1053 5.36662 16.7803 6.79358C17.4553 8.22054 17.6628 9.82408 17.3733 11.3759M14.1666 18.3334L18.3333 15.8334L14.1666 13.3334V18.3334Z" stroke="#FABB18" stroke-width="1.5" stroke-linecap="round" stroke-linejoin="round"/>
</svg>
