<svg width="121" height="13" viewBox="0 0 121 13" fill="none" xmlns="http://www.w3.org/2000/svg">
<path d="M0.512 6.336C0.512 5.22667 0.741333 4.24 1.2 3.376C1.66933 2.50133 2.33067 1.824 3.184 1.344C4.03733 0.853333 5.01867 0.608 6.128 0.608C7.536 0.608 8.72 0.986666 9.68 1.744C10.64 2.49067 11.2587 3.50933 11.536 4.8H8.16C7.95733 4.37333 7.67467 4.048 7.312 3.824C6.96 3.6 6.54933 3.488 6.08 3.488C5.35467 3.488 4.77333 3.74933 4.336 4.272C3.90933 4.784 3.696 5.472 3.696 6.336C3.696 7.21067 3.90933 7.90933 4.336 8.432C4.77333 8.944 5.35467 9.2 6.08 9.2C6.54933 9.2 6.96 9.088 7.312 8.864C7.67467 8.64 7.95733 8.31467 8.16 7.888H11.536C11.2587 9.17867 10.64 10.2027 9.68 10.96C8.72 11.7067 7.536 12.08 6.128 12.08C5.01867 12.08 4.03733 11.84 3.184 11.36C2.33067 10.8693 1.66933 10.192 1.2 9.328C0.741333 8.45333 0.512 7.456 0.512 6.336ZM23.277 0.719999L19.309 8.416V12H16.157V8.416L12.189 0.719999H15.773L17.757 5.072L19.741 0.719999H23.277ZM31.8878 0.719999V3.216H27.3758V5.2H30.7038V7.584H27.3758V12H24.2398V0.719999H31.8878ZM89.6421 0.719999V12H86.5061V5.776L84.3781 12H81.7541L79.6101 5.728V12H76.4741V0.719999H80.2661L83.0981 8.048L85.8661 0.719999H89.6421ZM98.5633 10.16H94.5633L93.9553 12H90.6593L94.7713 0.719999H98.3873L102.483 12H99.1713L98.5633 10.16ZM97.7793 7.76L96.5633 4.112L95.3633 7.76H97.7793ZM112.001 0.719999V3.216H108.993V12H105.857V3.216H102.881V0.719999H112.001ZM116.298 3.232V5.072H119.898V7.456H116.298V9.488H120.378V12H113.162V0.719999H120.378V3.232H116.298Z" fill="#FABB18"/>
<path d="M41.7045 0.719999V3.216H38.6965V12H35.5605V3.216H32.5845V0.719999H41.7045ZM50.0008 10.16H46.0008L45.3928 12H42.0968L46.2088 0.719999H49.8248L53.9208 12H50.6088L50.0008 10.16ZM49.2168 7.76L48.0008 4.112L46.8008 7.76H49.2168ZM59.1989 12.112C57.8869 12.112 56.8095 11.8027 55.9669 11.184C55.1242 10.5547 54.6709 9.65867 54.6069 8.496H57.9509C57.9829 8.89067 58.1002 9.17867 58.3029 9.36C58.5055 9.54133 58.7669 9.632 59.0869 9.632C59.3749 9.632 59.6095 9.56267 59.7909 9.424C59.9829 9.27467 60.0789 9.072 60.0789 8.816C60.0789 8.48533 59.9242 8.22933 59.6149 8.048C59.3055 7.86667 58.8042 7.664 58.1109 7.44C57.3749 7.19467 56.7775 6.96 56.3189 6.736C55.8709 6.50133 55.4762 6.16533 55.1349 5.728C54.8042 5.28 54.6389 4.69867 54.6389 3.984C54.6389 3.25867 54.8202 2.64 55.1829 2.128C55.5455 1.60533 56.0469 1.21067 56.6869 0.943999C57.3269 0.677333 58.0522 0.544 58.8629 0.544C60.1749 0.544 61.2202 0.853333 61.9989 1.472C62.7882 2.08 63.2095 2.93867 63.2629 4.048H59.8549C59.8442 3.70667 59.7375 3.45067 59.5349 3.28C59.3429 3.10933 59.0922 3.024 58.7829 3.024C58.5482 3.024 58.3562 3.09333 58.2069 3.232C58.0575 3.37067 57.9829 3.568 57.9829 3.824C57.9829 4.03733 58.0629 4.224 58.2229 4.384C58.3935 4.53333 58.6015 4.66667 58.8469 4.784C59.0922 4.89067 59.4549 5.02933 59.9349 5.2C60.6495 5.44533 61.2362 5.69067 61.6949 5.936C62.1642 6.17067 62.5642 6.50667 62.8949 6.944C63.2362 7.37067 63.4069 7.91467 63.4069 8.576C63.4069 9.248 63.2362 9.85067 62.8949 10.384C62.5642 10.9173 62.0789 11.3387 61.4389 11.648C60.8095 11.9573 60.0629 12.112 59.1989 12.112ZM71.5368 12L68.0008 7.056V12H64.8648V0.719999H68.0008V5.584L71.5048 0.719999H75.1208L70.9768 6.192L75.3288 12H71.5368Z" fill="white"/>
</svg>
